HIERARCHY
ROOT SpineBase
{
  OFFSET 0.000000 0.000000 0.000000
  CHANNELS 6 Xposition Yposition Zposition Zrotation Xrotation Yrotation
  JOINT SpineMid
  {
    OFFSET 0.000000 20.369466 0.000000
    CHANNELS 3 Zrotation Xrotation Yrotation
    JOINT SpineShoulder
    {
      OFFSET 0.573244 14.823669 -1.180390
      CHANNELS 3 Zrotation Xrotation Yrotation
      JOINT Neck
      {
        OFFSET 0.253106 4.670458 -0.525720
        CHANNELS 3 Zrotation Xrotation Yrotation
        JOINT Head
        {
          OFFSET -1.919491 14.410848 -0.557265
          CHANNELS 3 Zrotation Xrotation Yrotation
          End Site
          {
            OFFSET 0 0 0
          }
        }
      }
      JOINT ShoulderLeft
      {
        OFFSET -12.567033 5.150770 12.937574
        CHANNELS 3 Zrotation Xrotation Yrotation
        JOINT ElbowLeft
        {
          OFFSET -22.580128 -9.291585 4.828894
          CHANNELS 3 Zrotation Xrotation Yrotation
          JOINT WristLeft
          {
            OFFSET 21.743211 7.655101 -3.258483
            CHANNELS 3 Zrotation Xrotation Yrotation
            JOINT HandLeft
            {
              OFFSET 4.424387 0.430044 -5.941154
              CHANNELS 3 Zrotation Xrotation Yrotation
              JOINT HandTipLeft
              {
                OFFSET 3.464529 0.447341 -4.291851
                CHANNELS 3 Zrotation Xrotation Yrotation
                End Site
                {
                  OFFSET 0 0 0
                }
              }
              JOINT ThumbLeft
              {
                OFFSET -2.807095 4.765044 -2.554727
                CHANNELS 3 Zrotation Xrotation Yrotation
                End Site
                {
                  OFFSET 0 0 0
                }
              }
            }
          }
        }
      }
      JOINT ShoulderRight
      {
        OFFSET -15.506428 -3.649972 18.506648
        CHANNELS 3 Zrotation Xrotation Yrotation
        JOINT ElbowRight
        {
          OFFSET 9.120949 6.074982 -23.390199
          CHANNELS 3 Zrotation Xrotation Yrotation
          JOINT WristRight
          {
            OFFSET 5.983674 -13.287592 -21.183139
            CHANNELS 3 Zrotation Xrotation Yrotation
            JOINT HandRight
            {
              OFFSET 3.612726 -2.807062 -5.954008
              CHANNELS 3 Zrotation Xrotation Yrotation
              JOINT HandTipRight
              {
                OFFSET -3.887471 -5.718349 -3.765588
                CHANNELS 3 Zrotation Xrotation Yrotation
                End Site
                {
                  OFFSET 0 0 0
                }
              }
              JOINT ThumbRight
              {
                OFFSET 2.959381 -4.140337 1.691128
                CHANNELS 3 Zrotation Xrotation Yrotation
                End Site
                {
                  OFFSET 0 0 0
                }
              }
            }
          }
        }
      }
    }
  }
  JOINT HipLeft
  {
    OFFSET 0.718651 1.298928 -2.713117
    CHANNELS 3 Zrotation Xrotation Yrotation
    JOINT KneeLeft
    {
      OFFSET -35.399660 -1.006792 -4.083394
      CHANNELS 3 Zrotation Xrotation Yrotation
      JOINT AnkleLeft
      {
        OFFSET 30.366604 -9.308817 18.159360
        CHANNELS 3 Zrotation Xrotation Yrotation
        JOINT FootLeft
        {
          OFFSET -5.789827 -5.510135 11.185846
          CHANNELS 3 Zrotation Xrotation Yrotation
          End Site
          {
            OFFSET 0 0 0
          }
        }
      }
    }
  }
  JOINT HipRight
  {
    OFFSET -2.529869 -3.351363 -2.841924
    CHANNELS 3 Zrotation Xrotation Yrotation
    JOINT KneeRight
    {
      OFFSET -14.102556 2.080817 -27.399891
      CHANNELS 3 Zrotation Xrotation Yrotation
      JOINT AnkleRight
      {
        OFFSET -11.504482 -14.971711 19.125729
        CHANNELS 3 Zrotation Xrotation Yrotation
        JOINT FootRight
        {
          OFFSET 8.932436 -3.587292 2.012407
          CHANNELS 3 Zrotation Xrotation Yrotation
          End Site
          {
            OFFSET 0 0 0
          }
        }
      }
    }
  }
}
MOTION
Frames: 5
Frame Time: 0.033333
89.992449 21.970127 392.764240 -4.179916 -1.698174 175.124437 -2.057669 -4.956636 -175.393503 1.777926 -1.852538 0.244717 -3.499356 -3.700097 -0.555892 0.000000 0.000000 0.000000 2.702787 -1.483127 2.367156 -0.306804 0.826825 -2.779151 -2.034864 0.768647 -9.626898 3.981652 6.201666 4.099843 0.000000 0.000000 0.000000 0.000000 0.000000 0.000000 -2.082638 -5.484470 -1.228808 -0.314361 -6.484850 -0.050764 -10.344848 6.160660 29.781157 9.599220 18.073902 -28.981600 0.000000 0.000000 0.000000 0.000000 0.000000 0.000000 -3.320368 -1.975833 -172.638880 4.264960 -3.349485 -5.162165 4.121337 27.551851 -16.751246 0.000000 0.000000 0.000000 -4.330013 -0.528064 177.984786 0.674029 4.952710 5.948023 -157.760486 -63.344543 68.971646 0.000000 0.000000 0.000000
90.186594 22.096304 393.680183 -4.180938 -3.659059 179.586011 -1.791157 -5.353895 -179.919568 2.365617 -1.673188 0.287549 -2.191710 -1.143442 -0.259506 0.000000 0.000000 0.000000 3.157601 -0.264246 2.451824 -2.451130 0.673453 -3.024669 -0.301413 0.992507 -9.291861 4.092107 6.329618 4.659941 0.000000 0.000000 0.000000 0.000000 0.000000 0.000000 -1.652185 -3.471102 -1.053057 -0.958154 -8.878134 -0.615624 -7.919399 10.719357 26.323538 5.139276 19.385732 -25.711909 0.000000 0.000000 0.000000 0.000000 0.000000 0.000000 -3.198814 -3.735069 -178.371625 4.393525 -3.104978 -3.717079 3.894916 26.353641 -16.138494 0.000000 0.000000 0.000000 -4.357549 -2.064762 173.092977 1.300455 5.463257 6.878017 -165.682725 -65.960715 65.900325 0.000000 0.000000 0.000000
91.362089 22.193826 394.285559 -2.383939 -4.148741 -178.363524 -2.534426 -5.978715 178.109199 0.510699 -1.238971 0.107555 -3.406000 -3.589771 -0.633843 0.000000 0.000000 0.000000 2.560019 -0.865069 2.227669 -4.248336 0.228273 -2.319997 2.221613 2.214882 -11.106636 2.764696 4.304351 6.725148 0.000000 0.000000 0.000000 0.000000 0.000000 0.000000 -2.117394 -4.110401 -1.080151 -0.938781 -9.497614 -1.039876 -7.256353 13.568228 26.537173 2.208888 16.029396 -24.070736 0.000000 0.000000 0.000000 0.000000 0.000000 0.000000 -1.507651 -4.204002 178.733648 3.979103 -2.748267 -2.783158 3.710359 25.338297 -16.373052 0.000000 0.000000 0.000000 -2.797666 -2.336618 172.288815 1.555240 5.702979 6.015088 170.051357 -45.946770 41.226160 0.000000 0.000000 0.000000
91.300772 21.950007 395.592281 -2.403365 -5.398361 168.636858 -1.149130 -6.826722 -168.835881 1.462635 -0.347177 0.187289 -5.180045 -5.565405 -1.132868 0.000000 0.000000 0.000000 1.172862 -0.979141 2.033033 -5.679127 -0.054243 -1.930231 3.374255 1.881720 -11.148079 2.239828 3.341683 6.529949 0.000000 0.000000 0.000000 0.000000 0.000000 0.000000 -3.147178 -4.206455 -1.062937 -0.815891 -8.873966 -1.163943 -6.167355 15.012665 24.863874 0.503932 14.100772 -23.003172 0.000000 0.000000 0.000000 0.000000 0.000000 0.000000 0.391310 -5.801032 -172.734860 4.145676 -2.311971 1.648117 3.888461 24.349749 -15.926738 0.000000 0.000000 0.000000 -1.676333 -4.506147 -175.087730 2.078336 5.228619 6.846029 171.423199 -49.257222 43.601938 0.000000 0.000000 0.000000
91.095183 21.794957 396.294999 -2.212103 -5.043218 155.198795 0.937544 -5.289802 -155.285865 2.792319 0.431724 0.257651 -6.071269 -7.252394 -1.533970 0.000000 0.000000 0.000000 0.562368 -0.963895 2.193136 -6.837959 -0.051348 -2.160821 3.528251 0.427063 -7.485045 1.902004 2.613411 4.016715 0.000000 0.000000 0.000000 0.000000 0.000000 0.000000 -3.542733 -4.173227 -0.836925 -0.643752 -6.984516 -0.888703 -7.179148 10.792620 24.528013 0.502304 16.070235 -21.620345 0.000000 0.000000 0.000000 0.000000 0.000000 0.000000 1.600989 -5.334210 -162.524006 4.711681 -3.067999 3.235080 3.269064 26.348492 -14.259609 0.000000 0.000000 0.000000 -0.241413 -4.595633 -162.048239 3.426668 5.656661 8.498019 -179.107438 -65.639890 58.928281 0.000000 0.000000 0.000000
